<svg xmlns="http://www.w3.org/2000/svg" width="206.486" height="59.01" viewBox="0 0 206.486 59.01">
    <g id="Group_119476" data-name="Group 119476" transform="translate(0.5 0.5)">
        <g id="Group_48550" data-name="Group 48550" transform="translate(0 0)">
            <path id="Path_423" data-name="Path 423"
                d="M434.108,420.878c-5.059-4.494-13.877-11.813-15.873-18.369h.014a16.674,16.674,0,1,1,31.718,0h.015c-2,6.556-10.814,13.875-15.873,18.369Zm.031-14.539a6.476,6.476,0,0,0,3-.709,7.9,7.9,0,0,0,2.449-1.965,9.688,9.688,0,0,0,1.676-2.9,10.185,10.185,0,0,0,.612-3.577,9.809,9.809,0,0,0-.612-3.448,8.868,8.868,0,0,0-1.676-2.836,8.366,8.366,0,0,0-2.449-1.9,6.478,6.478,0,0,0-3-.709,6.676,6.676,0,0,0-3.029.709,8.238,8.238,0,0,0-2.482,1.9,8.866,8.866,0,0,0-1.675,2.836,9.8,9.8,0,0,0-.612,3.448,10.172,10.172,0,0,0,.612,3.577,9.686,9.686,0,0,0,1.675,2.9,7.792,7.792,0,0,0,2.482,1.965A6.675,6.675,0,0,0,434.138,406.339Z"
                transform="translate(-252.92 -368.224)" fill="#0056f1" fill-rule="evenodd" />
            <path id="Path_4134" data-name="Path 4134"
                d="M20047.326-22311.295v-45.111h8.7v4.328c2.307-3.229,5.709-4.848,10.18-4.848a16.594,16.594,0,0,1,6.566,1.314,16.963,16.963,0,0,1,5.383,3.617,16.87,16.87,0,0,1,3.615,5.33,16.068,16.068,0,0,1,1.322,6.49,16.921,16.921,0,0,1-1.322,6.652,16.9,16.9,0,0,1-3.615,5.357,16.512,16.512,0,0,1-5.383,3.613,16.307,16.307,0,0,1-6.566,1.334,12.066,12.066,0,0,1-7.932-2.572v-.057l3.229-5.881.068.064a8.775,8.775,0,0,0,3.543.77,8.845,8.845,0,0,0,3.535-.705,9.355,9.355,0,0,0,2.936-1.984,9.115,9.115,0,0,0,1.967-2.965,9.092,9.092,0,0,0,.715-3.627,8.787,8.787,0,0,0-.715-3.537,8.746,8.746,0,0,0-1.967-2.883,9.3,9.3,0,0,0-2.936-1.953,8.784,8.784,0,0,0-3.535-.711,8.759,8.759,0,0,0-3.584.711,9.128,9.128,0,0,0-2.857,1.93,9.606,9.606,0,0,0-1.941,2.883,8.755,8.755,0,0,0-.705,3.51v28.93Zm-29.6-13.67a16.515,16.515,0,0,1-5.27-3.543,16.972,16.972,0,0,1-3.588-5.289,16.184,16.184,0,0,1-1.314-6.445,16.348,16.348,0,0,1,1.314-6.5,17.035,17.035,0,0,1,3.588-5.293,17.175,17.175,0,0,1,5.27-3.578,16.144,16.144,0,0,1,6.463-1.314,13.081,13.081,0,0,1,5.854,1.24,12.242,12.242,0,0,1,4.326,3.607v-4.328h8.438v32.219h-8.437v-16.158a8.769,8.769,0,0,0-.7-3.48,8.911,8.911,0,0,0-1.971-2.838,9.062,9.062,0,0,0-2.906-1.918,9.055,9.055,0,0,0-3.451-.676,8.343,8.343,0,0,0-3.479.711,10.176,10.176,0,0,0-2.873,1.9,8.615,8.615,0,0,0-1.961,2.855,8.785,8.785,0,0,0-.707,3.525,8.371,8.371,0,0,0,.707,3.414,8.852,8.852,0,0,0,1.961,2.863,9.592,9.592,0,0,0,2.873,1.939,8.624,8.624,0,0,0,3.479.705,7.719,7.719,0,0,0,3.424-.705h.057v.133l3.217,5.738-.059.063a12.352,12.352,0,0,1-7.793,2.434A16.39,16.39,0,0,1,20017.725-22324.965Zm93.455.777v-32.219h8.584v32.219Zm-12.434,0,.066-45.105h8.506v45.105Zm-12.436,0v-32.219h8.576v32.219Zm-90.551,0,.064-19.262a5.094,5.094,0,0,0-.371-1.932,6.166,6.166,0,0,0-1.066-1.627,4.917,4.917,0,0,0-1.619-1.115,4.654,4.654,0,0,0-1.967-.424,4.835,4.835,0,0,0-3.607,1.512,4.954,4.954,0,0,0-1.477,3.586v19.262h-8.58v-19.262a4.722,4.722,0,0,0-.389-1.932,5.233,5.233,0,0,0-1.09-1.627,5.019,5.019,0,0,0-1.645-1.094,5.4,5.4,0,0,0-2.1-.383,5.222,5.222,0,0,1-.586-.947c-.336-.65-.73-1.352-1.15-2.127-.475-.889-1.059-1.9-1.736-3.062l.057-.139a9.667,9.667,0,0,1,6.121-2.166,9.955,9.955,0,0,1,5.873,1.6,10.891,10.891,0,0,1,3.477,3.959,8.627,8.627,0,0,1,.51-.77,12.854,12.854,0,0,1,4.1-3.576,10.175,10.175,0,0,1,4.8-1.215,10.209,10.209,0,0,1,5.119,1.189,10.055,10.055,0,0,1,3.385,3.119,13.809,13.809,0,0,1,1.869,4.363,21.359,21.359,0,0,1,.576,4.846v19.221Zm-37.307,0v-32.219h8.572v32.219Zm152.727-37.578v-7.539h8.584v7.539Zm-24.869,0v-7.539h8.576v7.539Z"
                transform="translate(-19958.453 22369.305)" fill="white" stroke="rgba(0,0,0,0)"
                stroke-width="1" />
            <path id="Path_461" data-name="Path 461"
                d="M100.717,11.158A3.722,3.722,0,0,1,99.239,9.68,3.99,3.99,0,0,1,99.247,5.7l1.032-1.183h0l.46-.291a3.991,3.991,0,0,1,3.922,0A3.663,3.663,0,0,1,106.154,5.7a4.005,4.005,0,0,1,.008,3.983,3.7,3.7,0,0,1-1.475,1.478,4.009,4.009,0,0,1-3.97,0Zm.349-6.359A3.084,3.084,0,0,0,99.821,6.03a3.316,3.316,0,0,0-.008,3.32,3.133,3.133,0,0,0,1.235,1.232,3.324,3.324,0,0,0,3.31,0,3.115,3.115,0,0,0,1.232-1.232,3.335,3.335,0,0,0-.008-3.32A3.066,3.066,0,0,0,104.335,4.8a3.316,3.316,0,0,0-3.27,0Zm2.646,5.1-.381-.677a3.457,3.457,0,0,0-.724-1,.889.889,0,0,0-.555-.148h-.407V9.9h-.692V5.61h1.475a3.6,3.6,0,0,1,1.094.119,1.06,1.06,0,0,1,.539.415,1.1,1.1,0,0,1,.2.629,1.143,1.143,0,0,1-.336.819,1.326,1.326,0,0,1-.891.391,1.168,1.168,0,0,1,.365.227,4.9,4.9,0,0,1,.634.851l.524.841Zm-2.067-2.416h.841a1.354,1.354,0,0,0,.822-.18.584.584,0,0,0,.219-.476.577.577,0,0,0-.106-.341.628.628,0,0,0-.293-.225,2.16,2.16,0,0,0-.7-.074h-.788Z"
                transform="translate(98.798 1.724)" fill="#white" stroke="rgba(0,0,0,0)"
                stroke-width="1" />
        </g>
    </g>
</svg>