<svg xmlns="http://www.w3.org/2000/svg" width="131.505" height="26.875" viewBox="0 0 131.505 26.875">
  <g id="Group_119474" data-name="Group 119474" transform="translate(0.5 0.5)">
    <g id="Group_47166" data-name="Group 47166" transform="translate(94.654 4.435)">
      <path id="Subtraction_82" data-name="Subtraction 82" d="M34.351,16.975H0A14.668,14.668,0,0,0,2.4,8.487,14.667,14.667,0,0,0,0,0H34.351a2,2,0,0,1,2,2V14.974A2,2,0,0,1,34.351,16.975Z" transform="translate(0 0)" fill="#fff"/>
      <path id="Path_41420" data-name="Path 41420" d="M6.536-54.6a2.982,2.982,0,0,0-1.894.68v-2.763H5.689v-.969H3.55v9.035H4.642v-.68a2.982,2.982,0,0,0,1.894.68,2.988,2.988,0,0,0,3-2.986A2.991,2.991,0,0,0,6.536-54.6Zm0,4.891A1.892,1.892,0,0,1,4.642-51.6a1.9,1.9,0,0,1,1.894-1.905A1.9,1.9,0,0,1,8.441-51.6,1.9,1.9,0,0,1,6.536-49.708Zm5.593-4.735a3.01,3.01,0,0,0-1.872,3.8,3,3,0,0,0,3.8,1.872,3.048,3.048,0,0,0,1.526-1.17l-.969-.535a1.924,1.924,0,0,1-.914.668,1.9,1.9,0,0,1-2.15-.691l3.22-1.1.29-.1,1.036-.345a9.668,9.668,0,0,0-.39-1.025A3,3,0,0,0,12.129-54.443Zm-.936,2.908a1.925,1.925,0,0,1,1.292-1.872,1.9,1.9,0,0,1,2.15.7Zm6.551-.134V-53.63h1.794V-54.6H17.744v-1.148H16.652V-51.6a2.988,2.988,0,0,0,2.886,2.986V-49.7A1.891,1.891,0,0,1,17.744-51.6Zm4.59-2.93a2.988,2.988,0,0,0-2.986,3,2.986,2.986,0,0,0,2.986,2.986,3.012,3.012,0,0,0,1.905-.68v.68h1.092V-51.6A2.991,2.991,0,0,0,22.334-54.6Zm0,4.891A1.892,1.892,0,0,1,20.44-51.6a1.9,1.9,0,0,1,1.894-1.905A1.9,1.9,0,0,1,24.239-51.6,1.9,1.9,0,0,1,22.334-49.708Z" transform="translate(4.328 60.814)" fill="#white"/>
    </g>
    <g id="Group_48550" data-name="Group 48550" transform="translate(0 0)">
      <path id="Path_423" data-name="Path 423" d="M424.871,398.567c-2.256-2-6.19-5.269-7.08-8.193h.006a7.437,7.437,0,1,1,14.147,0h.006c-.89,2.924-4.824,6.189-7.08,8.193Zm.014-6.485a2.889,2.889,0,0,0,1.336-.316,3.527,3.527,0,0,0,1.092-.877,4.321,4.321,0,0,0,.748-1.293,4.543,4.543,0,0,0,.273-1.6,4.376,4.376,0,0,0-.273-1.538,3.955,3.955,0,0,0-.748-1.265,3.732,3.732,0,0,0-1.092-.848,2.889,2.889,0,0,0-1.336-.316,2.977,2.977,0,0,0-1.351.316,3.674,3.674,0,0,0-1.107.848,3.954,3.954,0,0,0-.747,1.265,4.37,4.37,0,0,0-.273,1.538,4.538,4.538,0,0,0,.273,1.6,4.32,4.32,0,0,0,.747,1.293,3.476,3.476,0,0,0,1.107.877A2.977,2.977,0,0,0,424.885,392.082Z" transform="translate(-344.054 -375.081)" fill="#0056f1" fill-rule="evenodd"/>
      <path id="Path_4134" data-name="Path 4134" d="M19998.094-22343.43v-20.123h3.879v1.932a5.229,5.229,0,0,1,4.541-2.162,7.418,7.418,0,0,1,2.93.586,7.579,7.579,0,0,1,2.4,1.613,7.606,7.606,0,0,1,1.613,2.379,7.149,7.149,0,0,1,.59,2.895,7.522,7.522,0,0,1-.59,2.965,7.569,7.569,0,0,1-1.613,2.391,7.354,7.354,0,0,1-2.4,1.611,7.29,7.29,0,0,1-2.93.6,5.382,5.382,0,0,1-3.539-1.146v-.025l1.441-2.623.031.027a3.89,3.89,0,0,0,1.58.342,3.952,3.952,0,0,0,1.578-.312,4.106,4.106,0,0,0,1.307-.887,4.055,4.055,0,0,0,.877-1.32,4.051,4.051,0,0,0,.32-1.617,3.91,3.91,0,0,0-.32-1.578,3.865,3.865,0,0,0-.877-1.285,4.166,4.166,0,0,0-1.307-.873,3.955,3.955,0,0,0-1.578-.316,3.932,3.932,0,0,0-1.6.316,4.172,4.172,0,0,0-1.275.861,4.3,4.3,0,0,0-.865,1.285,3.937,3.937,0,0,0-.314,1.566v12.9Zm-13.2-6.1a7.329,7.329,0,0,1-2.348-1.578,7.624,7.624,0,0,1-1.6-2.359,7.22,7.22,0,0,1-.586-2.875,7.285,7.285,0,0,1,.586-2.9,7.656,7.656,0,0,1,1.6-2.361,7.64,7.64,0,0,1,2.348-1.6,7.219,7.219,0,0,1,2.883-.586,5.843,5.843,0,0,1,2.611.553,5.47,5.47,0,0,1,1.932,1.609v-1.932h3.762v14.371h-3.762v-7.207a3.92,3.92,0,0,0-.312-1.551,3.958,3.958,0,0,0-.879-1.266,3.988,3.988,0,0,0-1.3-.855,4.04,4.04,0,0,0-1.539-.3,3.734,3.734,0,0,0-1.551.316,4.625,4.625,0,0,0-1.283.848,3.864,3.864,0,0,0-.873,1.275,3.913,3.913,0,0,0-.316,1.572,3.735,3.735,0,0,0,.316,1.523,3.925,3.925,0,0,0,.873,1.275,4.281,4.281,0,0,0,1.283.865,3.828,3.828,0,0,0,1.551.314,3.431,3.431,0,0,0,1.527-.314h.023v.059l1.438,2.561-.027.029a5.52,5.52,0,0,1-3.477,1.086A7.279,7.279,0,0,1,19984.891-22349.529Zm41.686.348v-14.371h3.828v14.371Zm-5.545,0,.027-20.117h3.8v20.117Zm-5.547,0v-14.371h3.824v14.371Zm-40.391,0,.027-8.592a2.27,2.27,0,0,0-.164-.861,2.739,2.739,0,0,0-.477-.725,2.2,2.2,0,0,0-.723-.5,2.075,2.075,0,0,0-.875-.189,2.164,2.164,0,0,0-1.609.674,2.214,2.214,0,0,0-.66,1.6v8.592h-3.826v-8.592a2.1,2.1,0,0,0-.174-.861,2.3,2.3,0,0,0-.488-.725,2.211,2.211,0,0,0-.73-.488,2.467,2.467,0,0,0-.937-.17,2.475,2.475,0,0,1-.258-.422c-.152-.293-.328-.6-.516-.949-.211-.4-.471-.85-.773-1.367l.025-.061a4.306,4.306,0,0,1,2.729-.967,4.433,4.433,0,0,1,2.619.715,4.868,4.868,0,0,1,1.553,1.764,3.45,3.45,0,0,1,.229-.342,5.735,5.735,0,0,1,1.826-1.6,4.551,4.551,0,0,1,2.145-.541,4.516,4.516,0,0,1,2.281.531,4.5,4.5,0,0,1,1.51,1.391,6.128,6.128,0,0,1,.834,1.945,9.493,9.493,0,0,1,.258,2.162v8.572Zm-16.641,0v-14.371h3.824v14.371Zm68.123-16.762v-3.361h3.828v3.361Zm-11.092,0v-3.361h3.824v3.361Z" transform="translate(-19958.453 22369.305)" fill="white" stroke="rgba(0,0,0,0)" stroke-width="1"/>
      <path id="Path_461" data-name="Path 461" d="M99.606,7.03a1.66,1.66,0,0,1-.659-.659,1.78,1.78,0,0,1,0-1.777l.461-.528h0l.205-.13a1.78,1.78,0,0,1,1.75,0,1.634,1.634,0,0,1,.665.658,1.786,1.786,0,0,1,0,1.777,1.652,1.652,0,0,1-.658.659,1.788,1.788,0,0,1-1.771,0Zm.156-2.837a1.376,1.376,0,0,0-.555.549,1.479,1.479,0,0,0,0,1.481,1.4,1.4,0,0,0,.551.549,1.482,1.482,0,0,0,1.476,0,1.389,1.389,0,0,0,.549-.549,1.488,1.488,0,0,0,0-1.481,1.367,1.367,0,0,0-.555-.549,1.479,1.479,0,0,0-1.458,0Zm1.18,2.277-.17-.3a1.542,1.542,0,0,0-.323-.446.4.4,0,0,0-.248-.066h-.181V6.47H99.71V4.555h.658a1.6,1.6,0,0,1,.488.053.473.473,0,0,1,.241.185.491.491,0,0,1,.09.281.51.51,0,0,1-.15.365.592.592,0,0,1-.4.175.521.521,0,0,1,.163.1,2.187,2.187,0,0,1,.283.38l.234.375Zm-.922-1.078h.375a.6.6,0,0,0,.367-.08.261.261,0,0,0,.1-.212.258.258,0,0,0-.047-.152.28.28,0,0,0-.131-.1.963.963,0,0,0-.31-.033h-.351Z" transform="translate(-10.613 -1.284)" fill="#white" stroke="rgba(0,0,0,0)" stroke-width="1"/>
    </g>
  </g>
</svg>
